STARTFONT 2.1
FONT -FontForge-Exo-Bold-R-Normal--75-720-75-75-P-388-ISO10646-1
SIZE 72 75 75
FONTBOUNDINGBOX 141 104 -40 -20
COMMENT "Generated by fontforge, http://fontforge.sourceforge.net"
COMMENT "Copyright 2017 The Exo Project Authors (https://github.com/NDISCOVER/Exo-1.0)"
STARTPROPERTIES 39
FOUNDRY "FontForge"
FAMILY_NAME "Exo"
WEIGHT_NAME "Bold"
SLANT "R"
SETWIDTH_NAME "Normal"
ADD_STYLE_NAME ""
PIXEL_SIZE 75
POINT_SIZE 720
RESOLUTION_X 75
RESOLUTION_Y 75
SPACING "P"
AVERAGE_WIDTH 388
CHARSET_REGISTRY "ISO10646"
CHARSET_ENCODING "1"
FONTNAME_REGISTRY ""
CHARSET_COLLECTIONS "ISO8859-2 ISO8859-9 ISO8859-4 ISO10646-1"
FONT_NAME "Exo-Bold"
FACE_NAME "Exo Bold"
COPYRIGHT "Copyright 2017 The Exo Project Authors (https://github.com/NDISCOVER/Exo-1.0)"
FONT_VERSION "2.000"
FONT_ASCENT 60
FONT_DESCENT 15
UNDERLINE_POSITION -9
UNDERLINE_THICKNESS 4
X_HEIGHT 39
CAP_HEIGHT 55
RAW_ASCENT 800
RAW_DESCENT 200
NORM_SPACE 19
RELATIVE_WEIGHT 70
RELATIVE_SETWIDTH 50
SUPERSCRIPT_X 0
SUPERSCRIPT_Y 26
SUPERSCRIPT_SIZE 45
SUBSCRIPT_X 0
SUBSCRIPT_Y 5
SUBSCRIPT_SIZE 45
AVG_LOWERCASE_WIDTH 405
AVG_UPPERCASE_WIDTH 477
ENDPROPERTIES
CHARS 1053
STARTCHAR CR
ENCODING 13
SWIDTH 258 0
DWIDTH 19 0
BBX 1 1 0 0
BITMAP
00
ENDCHAR
STARTCHAR comma
ENCODING 44
SWIDTH 234 0
DWIDTH 18 0
BBX 10 18 4 -7
BITMAP
7F80
FF80
FFC0
FFC0
FFC0
FFC0
FFC0
FFC0
FFC0
FFC0
3FC0
3FC0
3FC0
7F80
FF80
FF80
FF00
3800
ENDCHAR
STARTCHAR period
ENCODING 46
SWIDTH 234 0
DWIDTH 18 0
BBX 10 11 4 0
BITMAP
7F00
FFC0
FFC0
FFC0
FFC0
FFC0
FFC0
FFC0
FFC0
FFC0
FF80
ENDCHAR
STARTCHAR slash
ENCODING 47
SWIDTH 462 0
DWIDTH 35 0
BBX 33 63 1 -5
BITMAP
000007FF80
000007FF00
00000FFF00
00000FFE00
00000FFE00
00001FFE00
00001FFC00
00001FFC00
00003FFC00
00003FF800
00003FF800
00007FF800
00007FF000
00007FF000
0000FFF000
0000FFE000
0000FFE000
0001FFE000
0001FFC000
0001FFC000
0003FFC000
0003FF8000
0003FF8000
0007FF8000
0007FF0000
0007FF0000
000FFF0000
000FFE0000
000FFE0000
001FFE0000
001FFC0000
001FFC0000
003FFC0000
003FF80000
003FF80000
007FF80000
007FF00000
007FF00000
00FFF00000
00FFE00000
00FFE00000
01FFE00000
01FFC00000
01FFC00000
03FFC00000
03FF800000
03FF800000
07FF800000
07FF000000
07FF000000
0FFF000000
0FFE000000
0FFE000000
1FFE000000
1FFC000000
1FFC000000
3FFC000000
3FF8000000
3FF8000000
7FF8000000
7FF0000000
7FF0000000
FFF0000000
ENDCHAR
STARTCHAR zero
ENCODING 48
SWIDTH 647 0
DWIDTH 49 0
BBX 40 56 4 0
BITMAP
003FFFFE00
01FFFFFFC0
03FFFFFFE0
0FFFFFFFF0
1FFFFFFFF8
1FFFFFFFFC
3FFFFFFFFE
7FFFFFFFFE
7FFFFFFFFE
7FFFFFFFFF
7FFC003FFF
FFF8000FFF
FFF00007FF
FFF00007FF
FFE00007FF
FFE00007FF
FFE00007FF
FFE00007FF
FFE00007FF
FFE00007FF
FFE00007FF
FFE00007FF
FFE00007FF
FFE00007FF
FFE00007FF
FFE00007FF
FFE00007FF
FFE00007FF
FFE00007FF
FFE00007FF
FFE00007FF
FFE00007FF
FFE00007FF
FFE00007FF
FFE00007FF
FFE00007FF
FFE00007FF
FFE00007FF
FFE00007FF
FFE00007FF
FFE00007FF
FFE00007FF
FFE00007FF
FFF00007FF
FFF0000FFF
FFFC001FFF
7FFFFFFFFF
7FFFFFFFFF
7FFFFFFFFE
3FFFFFFFFE
3FFFFFFFFC
1FFFFFFFFC
0FFFFFFFF8
07FFFFFFF0
03FFFFFFC0
007FFFFF00
ENDCHAR
STARTCHAR one
ENCODING 49
SWIDTH 372 0
DWIDTH 28 0
BBX 21 56 2 0
BITMAP
003FF8
00FFF8
03FFF8
1FFFF8
7FFFF8
FFFFF8
FFFFF8
FFFFF8
FFFFF8
FFFFF8
FFFFF8
E03FF8
003FF8
003FF8
003FF8
003FF8
003FF8
003FF8
003FF8
003FF8
003FF8
003FF8
003FF8
003FF8
003FF8
003FF8
003FF8
003FF8
003FF8
003FF8
003FF8
003FF8
003FF8
003FF8
003FF8
003FF8
003FF8
003FF8
003FF8
003FF8
003FF8
003FF8
003FF8
003FF8
003FF8
003FF8
003FF8
003FF8
003FF8
003FF8
003FF8
003FF8
003FF8
003FF8
003FF8
003FF8
ENDCHAR
STARTCHAR two
ENCODING 50
SWIDTH 586 0
DWIDTH 44 0
BBX 38 56 3 0
BITMAP
001FFF8000
0FFFFFF800
3FFFFFFE00
3FFFFFFF00
3FFFFFFF80
3FFFFFFFC0
3FFFFFFFE0
3FFFFFFFE0
3FFFFFFFF0
3FFFFFFFF0
3FFFFFFFF0
000001FFF0
000000FFF0
0000007FF8
0000007FF8
0000007FF8
0000007FF8
0000007FF0
0000007FF0
0000007FF0
0000007FF0
0000007FF0
000000FFE0
000001FFE0
000001FFE0
000003FFC0
000007FFC0
00000FFF80
00001FFF00
00003FFE00
00007FFE00
0000FFFC00
0001FFF800
0003FFF000
0007FFE000
000FFFC000
001FFF8000
003FFF0000
007FFE0000
00FFFC0000
01FFF80000
03FFF00000
07FFE00000
0FFFC00000
1FFF800000
3FFF000000
7FFFFFFFFC
FFFFFFFFFC
FFFFFFFFFC
FFFFFFFFFC
FFFFFFFFFC
FFFFFFFFFC
FFFFFFFFFC
FFFFFFFFFC
FFFFFFFFFC
FFFFFFFFFC
ENDCHAR
STARTCHAR three
ENCODING 51
SWIDTH 579 0
DWIDTH 43 0
BBX 37 56 3 0
BITMAP
003FFF8000
3FFFFFF800
7FFFFFFE00
7FFFFFFF00
7FFFFFFF80
7FFFFFFFC0
7FFFFFFFC0
7FFFFFFFE0
7FFFFFFFE0
7FFFFFFFF0
7FFFFFFFF0
000003FFF0
000000FFF0
000000FFF0
0000007FF0
0000007FF0
0000007FF0
0000007FF0
0000007FF0
0000007FF0
0000007FF0
000000FFF0
000003FFE0
003FFFFFE0
07FFFFFFC0
07FFFFFF80
07FFFFFF00
07FFFFFE00
07FFFFFC00
07FFFFFF00
07FFFFFF80
07FFFFFFC0
01FFFFFFE0
000003FFE0
000000FFF0
0000007FF0
0000007FF8
0000003FF8
0000003FF8
0000003FF8
0000003FF8
0000003FF8
0000007FF8
0000007FF8
000000FFF8
000003FFF8
FFFFFFFFF8
FFFFFFFFF0
FFFFFFFFF0
FFFFFFFFE0
FFFFFFFFE0
FFFFFFFFC0
FFFFFFFF80
FFFFFFFF00
FFFFFFFC00
0FFFFFF000
ENDCHAR
STARTCHAR four
ENCODING 52
SWIDTH 619 0
DWIDTH 46 0
BBX 43 56 2 0
BITMAP
00003FF80000
00007FF80000
00007FF00000
0000FFF00000
0000FFE00000
0001FFE00000
0001FFC00000
0003FFC00000
0003FF800000
0007FF800000
0007FF000000
0007FF000000
000FFE000000
000FFE000000
001FFC000000
001FFC000000
003FFC000000
003FF8000000
007FF80FF800
007FF00FF800
00FFF01FF800
00FFE01FF800
01FFE01FF800
01FFC03FF800
03FFC03FF800
03FF803FF800
03FF803FF800
07FF003FF800
07FF003FF800
0FFE003FF800
0FFE003FF800
1FFC003FF800
1FFC003FF800
3FFC003FF800
3FF8003FF800
7FFFFFFFFFE0
7FFFFFFFFFE0
FFFFFFFFFFE0
FFFFFFFFFFE0
FFFFFFFFFFE0
FFFFFFFFFFE0
7FFFFFFFFFE0
7FFFFFFFFFE0
3FFFFFFFFF00
0000003FF800
0000003FF800
0000003FF800
0000003FF800
0000003FF800
0000003FF800
0000003FF800
0000003FF800
0000003FF800
0000003FF800
0000003FF800
0000003FF800
ENDCHAR
STARTCHAR five
ENCODING 53
SWIDTH 607 0
DWIDTH 46 0
BBX 38 56 4 0
BITMAP
1FFFFFFFF0
1FFFFFFFF0
1FFFFFFFF0
1FFFFFFFF0
1FFFFFFFF0
1FFFFFFFF0
3FFFFFFFF0
3FFFFFFFF0
3FFFFFFFF0
3FFFFFFFF0
3FF0000000
3FF0000000
3FF0000000
3FF0000000
3FF0000000
3FF0000000
3FF0000000
3FF0000000
3FF0000000
3FF0000000
3FF0000000
3FF0FFF000
3FF7FFFF00
3FFFFFFF80
3FFFFFFFE0
3FFFFFFFE0
3FFFFFFFF0
7FFFFFFFF8
7FFFFFFFF8
7FFFFFFFFC
7FFFFFFFFC
7FF8007FFC
7FF0003FFC
7FF0001FFC
7FF0001FFC
0000001FFC
0000001FFC
0000001FFC
0000001FFC
0000001FFC
0000001FFC
0000001FFC
0000001FFC
0000003FFC
0000003FFC
000000FFFC
FFFFFFFFFC
FFFFFFFFF8
FFFFFFFFF8
FFFFFFFFF8
FFFFFFFFF0
FFFFFFFFE0
FFFFFFFFC0
FFFFFFFF80
FFFFFFFE00
1FFFFFF000
ENDCHAR
STARTCHAR six
ENCODING 54
SWIDTH 607 0
DWIDTH 46 0
BBX 38 56 4 0
BITMAP
0000FFFC00
000FFFFFE0
003FFFFFE0
00FFFFFFE0
01FFFFFFE0
03FFFFFFE0
07FFFFFFE0
0FFFFFFFE0
0FFFFFFFE0
1FFFFFFFE0
1FFFC00000
3FFF000000
3FFC000000
3FFC000000
7FF8000000
7FF0000000
7FF0000000
7FF0000000
7FE0000000
FFE0000000
FFE0000000
FFE0000000
FFE0000000
FFEFFFFE00
FFFFFFFF80
FFFFFFFFC0
FFFFFFFFF0
FFFFFFFFF0
FFFFFFFFF8
FFFFFFFFF8
FFFFFFFFFC
FFFFFFFFFC
FFE000FFFC
FFE0003FFC
FFE0001FFC
FFE0001FFC
FFE0001FFC
FFE0001FFC
FFE0001FFC
FFE0001FFC
7FF0001FFC
7FF0001FFC
7FF0001FFC
7FF8001FFC
7FFC003FFC
3FFE007FFC
3FFFFFFFFC
3FFFFFFFFC
1FFFFFFFF8
1FFFFFFFF8
0FFFFFFFF8
0FFFFFFFF0
07FFFFFFE0
03FFFFFFC0
00FFFFFF80
003FFFFC00
ENDCHAR
STARTCHAR seven
ENCODING 55
SWIDTH 554 0
DWIDTH 42 0
BBX 38 56 2 0
BITMAP
FFFFFFFFE0
FFFFFFFFE0
FFFFFFFFF0
FFFFFFFFF8
FFFFFFFFF8
FFFFFFFFFC
FFFFFFFFF8
FFFFFFFFF8
FFFFFFFFF0
FFFFFFFFF0
FFFFFFFFF0
FFFFFFFFE0
000001FFE0
000001FFE0
000003FFC0
000003FFC0
000003FFC0
000007FF80
000007FF80
00000FFF80
00000FFF00
00000FFF00
00001FFE00
00001FFE00
00001FFE00
00003FFC00
00003FFC00
00007FFC00
00007FF800
00007FF800
0000FFF800
0000FFF000
0000FFF000
0001FFE000
0001FFE000
0003FFE000
0003FFC000
0003FFC000
0007FFC000
0007FF8000
0007FF8000
000FFF8000
000FFF0000
001FFF0000
001FFE0000
001FFE0000
003FFE0000
003FFC0000
003FFC0000
007FFC0000
007FF80000
007FF80000
00FFF80000
00FFF00000
01FFF00000
01FFE00000
ENDCHAR
STARTCHAR eight
ENCODING 56
SWIDTH 628 0
DWIDTH 47 0
BBX 39 56 4 0
BITMAP
003FFFF800
01FFFFFF00
03FFFFFFC0
0FFFFFFFE0
1FFFFFFFF0
1FFFFFFFF0
3FFFFFFFF8
3FFFFFFFF8
3FFFFFFFF8
3FFFFFFFFC
7FF8003FFC
7FF8003FFC
7FF0001FFC
7FF0001FFC
7FF0001FFC
7FF0001FFC
7FF0001FFC
7FF0001FFC
7FF0001FFC
3FF0001FFC
3FF8003FF8
3FF8003FF8
3FFC007FF8
3FFFFFFFF8
1FFFFFFFF0
1FFFFFFFE0
0FFFFFFFC0
03FFFFFFE0
0FFFFFFFF0
1FFFFFFFF8
3FFFFFFFF8
3FFFFFFFFC
7FFF01FFFC
7FF8003FFC
7FF0001FFE
FFF0001FFE
FFF0000FFE
FFE0000FFE
FFE0000FFE
FFE0000FFE
FFE0000FFE
FFE0000FFE
FFF0000FFE
FFF0000FFE
FFF0001FFE
FFF8001FFE
FFFC007FFE
7FFFFFFFFE
7FFFFFFFFC
7FFFFFFFFC
3FFFFFFFFC
3FFFFFFFF8
1FFFFFFFF0
0FFFFFFFE0
03FFFFFFC0
00FFFFFE00
ENDCHAR
STARTCHAR nine
ENCODING 57
SWIDTH 607 0
DWIDTH 46 0
BBX 38 56 4 0
BITMAP
007FFF8000
03FFFFF800
0FFFFFFE00
1FFFFFFF00
3FFFFFFF80
7FFFFFFFC0
7FFFFFFFC0
FFFFFFFFE0
FFFFFFFFE0
FFFFFFFFF0
FFF803FFF0
FFF000FFF0
FFE0007FF0
FFE0007FF8
FFE0003FF8
FFE0003FF8
FFE0003FF8
FFE0003FF8
FFE0003FF8
FFE0001FFC
FFE0001FFC
FFE0001FFC
FFE0001FFC
FFF0001FFC
FFFFFFFFFC
FFFFFFFFFC
FFFFFFFFFC
7FFFFFFFFC
7FFFFFFFFC
3FFFFFFFFC
1FFFFFFFFC
0FFFFFFFFC
03FFFFFFFC
007FFC1FFC
0000001FFC
0000001FFC
0000003FF8
0000003FF8
0000003FF8
0000003FF8
0000007FF8
0000007FF0
000000FFF0
000000FFF0
000001FFE0
000007FFE0
1FFFFFFFE0
1FFFFFFFC0
1FFFFFFFC0
1FFFFFFF80
1FFFFFFF00
1FFFFFFE00
1FFFFFFC00
1FFFFFF800
1FFFFFE000
0FFFFF0000
ENDCHAR
STARTCHAR colon
ENCODING 58
SWIDTH 234 0
DWIDTH 18 0
BBX 10 41 4 0
BITMAP
7F00
FFC0
FFC0
FFC0
FFC0
FFC0
FFC0
FFC0
FFC0
FFC0
FF80
0000
0000
0000
0000
0000
0000
0000
0000
0000
0000
0000
0000
0000
0000
0000
0000
0000
0000
0000
7F00
FFC0
FFC0
FFC0
FFC0
FFC0
FFC0
FFC0
FFC0
FFC0
FF80
ENDCHAR
STARTCHAR A
ENCODING 65
SWIDTH 685 0
DWIDTH 51 0
BBX 49 56 1 0
BITMAP
00003FFF000000
00007FFF000000
00007FFF000000
00007FFF800000
0000FFFF800000
0000FFFF800000
0000FFFFC00000
0001FFFFC00000
0001FFFFC00000
0001FFFFE00000
0001FF7FE00000
0003FF7FE00000
0003FF7FE00000
0003FF3FF00000
0007FE3FF00000
0007FE3FF00000
0007FE3FF80000
000FFE1FF80000
000FFC1FF80000
000FFC1FFC0000
001FFC0FFC0000
001FF80FFC0000
001FF80FFE0000
003FF80FFE0000
003FF807FE0000
003FF007FF0000
003FF007FF0000
007FF007FF0000
007FE003FF0000
007FE003FF8000
00FFE003FF8000
00FFE001FF8000
00FFC001FFC000
01FFC001FFC000
01FFFFFFFFC000
01FFFFFFFFE000
03FFFFFFFFE000
03FFFFFFFFE000
03FFFFFFFFF000
07FFFFFFFFF000
07FFFFFFFFF000
07FFFFFFFFF800
0FFFFFFFFFF800
0FFFFFFFFFF800
0FFE00003FF800
0FFE00003FFC00
1FFE00001FFC00
1FFC00001FFC00
1FFC00001FFE00
3FFC00000FFE00
3FF800000FFE00
3FF800000FFF00
7FF800000FFF00
7FF0000007FF00
7FF0000007FF80
FFF0000007FF80
ENDCHAR
STARTCHAR B
ENCODING 66
SWIDTH 627 0
DWIDTH 47 0
BBX 39 56 5 0
BITMAP
FFFFFC0000
FFFFFFF800
FFFFFFFE00
FFFFFFFF80
FFFFFFFFC0
FFFFFFFFE0
FFFFFFFFE0
FFFFFFFFF0
FFFFFFFFF0
FFFFFFFFF8
FFE003FFF8
FFE0007FF8
FFE0003FF8
FFE0003FF8
FFE0001FF8
FFE0001FF8
FFE0001FF8
FFE0001FF8
FFE0001FF8
FFE0001FF8
FFE0003FF8
FFE0003FF0
FFE0007FF0
FFFFFFFFE0
FFFFFFFFC0
FFFFFFFF80
FFFFFFFF00
FFFFFFFE00
FFFFFFFF80
FFFFFFFFE0
FFFFFFFFF0
FFFFFFFFF0
FFE0007FF8
FFE0001FFC
FFE0001FFC
FFE0000FFE
FFE0000FFE
FFE00007FE
FFE00007FE
FFE00007FE
FFE00007FE
FFE0000FFE
FFE0000FFE
FFE0000FFE
FFE0001FFE
FFE0007FFE
FFFFFFFFFE
FFFFFFFFFC
FFFFFFFFFC
FFFFFFFFF8
FFFFFFFFF8
FFFFFFFFF0
FFFFFFFFE0
FFFFFFFFC0
FFFFFFFF00
FFFFFFF800
ENDCHAR
STARTCHAR C
ENCODING 67
SWIDTH 586 0
DWIDTH 44 0
BBX 38 56 3 0
BITMAP
0001FFF800
001FFFFFC0
007FFFFFFC
00FFFFFFFC
01FFFFFFFC
03FFFFFFFC
07FFFFFFFC
0FFFFFFFFC
0FFFFFFFFC
1FFFFFFFFC
1FFFC0007C
3FFF000000
3FFE000000
3FFC000000
3FF8000000
7FF8000000
7FF8000000
7FF0000000
7FF0000000
7FF0000000
7FF0000000
7FF0000000
7FF0000000
FFF0000000
FFF0000000
FFF0000000
FFE0000000
FFE0000000
FFE0000000
FFE0000000
FFE0000000
FFF0000000
FFF0000000
FFF0000000
7FF0000000
7FF0000000
7FF0000000
7FF0000000
7FF0000000
7FF0000000
7FF8000000
7FF8000000
3FFC000000
3FFC000000
3FFE000000
3FFF800000
1FFFFFFFFC
1FFFFFFFFC
0FFFFFFFFC
0FFFFFFFFC
07FFFFFFFC
03FFFFFFFC
01FFFFFFFC
00FFFFFFFC
003FFFFFF8
000FFFFF80
ENDCHAR
STARTCHAR D
ENCODING 68
SWIDTH 680 0
DWIDTH 51 0
BBX 43 56 5 0
BITMAP
FFFFFF000000
FFFFFFFC0000
FFFFFFFF8000
FFFFFFFFC000
FFFFFFFFF000
FFFFFFFFF800
FFFFFFFFF800
FFFFFFFFFC00
FFFFFFFFFE00
FFFFFFFFFE00
FFE001FFFF00
FFE0001FFF00
FFE0000FFF80
FFE00007FF80
FFE00007FF80
FFE00003FF80
FFE00003FFC0
FFE00001FFC0
FFE00001FFC0
FFE00001FFC0
FFE00001FFC0
FFE00001FFC0
FFE00001FFC0
FFE00001FFC0
FFE00001FFE0
FFE00001FFE0
FFE00001FFE0
FFE00000FFE0
FFE00000FFE0
FFE00000FFE0
FFE00001FFE0
FFE00001FFE0
FFE00001FFC0
FFE00001FFC0
FFE00001FFC0
FFE00001FFC0
FFE00001FFC0
FFE00001FFC0
FFE00003FFC0
FFE00003FFC0
FFE00003FF80
FFE00007FF80
FFE00007FF80
FFE0000FFF80
FFE0001FFF00
FFE0007FFF00
FFFFFFFFFE00
FFFFFFFFFE00
FFFFFFFFFC00
FFFFFFFFFC00
FFFFFFFFF800
FFFFFFFFF000
FFFFFFFFE000
FFFFFFFF8000
FFFFFFFE0000
FFFFFFF00000
ENDCHAR
STARTCHAR E
ENCODING 69
SWIDTH 597 0
DWIDTH 45 0
BBX 36 56 5 0
BITMAP
0008000000
01FFFFFFF0
07FFFFFFF0
1FFFFFFFF0
3FFFFFFFF0
3FFFFFFFF0
7FFFFFFFF0
7FFFFFFFF0
FFFFFFFFF0
FFFFFFFFF0
FFFFFFFFF0
FFF8000000
FFF0000000
FFE0000000
FFE0000000
FFE0000000
FFE0000000
FFE0000000
FFE0000000
FFE0000000
FFE0000000
FFE0000000
FFE0000000
FFFF000000
FFFFFFFF80
FFFFFFFF80
FFFFFFFF80
FFFFFFFF80
FFFFFFFF80
FFFFFFFF80
FFFFFFFF80
FFFFFFFF80
FFFFFFFF80
FFE0000000
FFE0000000
FFE0000000
FFE0000000
FFE0000000
FFE0000000
FFE0000000
FFE0000000
FFE0000000
FFE0000000
FFE0000000
FFF0000000
FFF8000000
FFFFFFFFF0
FFFFFFFFF0
FFFFFFFFF0
7FFFFFFFF0
7FFFFFFFF0
3FFFFFFFF0
3FFFFFFFF0
1FFFFFFFF0
07FFFFFFF0
01FFFFFFC0
ENDCHAR
STARTCHAR F
ENCODING 70
SWIDTH 583 0
DWIDTH 44 0
BBX 36 56 5 0
BITMAP
0008000000
01FFFFFFF0
07FFFFFFF0
1FFFFFFFF0
3FFFFFFFF0
3FFFFFFFF0
7FFFFFFFF0
7FFFFFFFF0
FFFFFFFFF0
FFFFFFFFF0
FFFFFFFFF0
FFF8000000
FFF0000000
FFE0000000
FFE0000000
FFE0000000
FFE0000000
FFE0000000
FFE0000000
FFE0000000
FFE0000000
FFE0000000
FFE0000000
FFE0000000
FFE0000000
FFFFFFFF80
FFFFFFFF80
FFFFFFFF80
FFFFFFFF80
FFFFFFFF80
FFFFFFFF80
FFFFFFFF80
FFFFFFFF80
FFFFFFFF80
FFFFC00000
FFE0000000
FFE0000000
FFE0000000
FFE0000000
FFE0000000
FFE0000000
FFE0000000
FFE0000000
FFE0000000
FFE0000000
FFE0000000
FFE0000000
FFE0000000
FFE0000000
FFE0000000
FFE0000000
FFE0000000
FFE0000000
FFE0000000
FFE0000000
FFE0000000
ENDCHAR
STARTCHAR G
ENCODING 71
SWIDTH 666 0
DWIDTH 50 0
BBX 42 56 3 0
BITMAP
0001FFFC0000
001FFFFFF000
007FFFFFFF00
00FFFFFFFF00
01FFFFFFFF00
03FFFFFFFF00
07FFFFFFFF00
0FFFFFFFFF00
0FFFFFFFFF00
1FFFFFFFFF00
1FFFC0003F00
3FFF00000000
3FFE00000000
3FFC00000000
3FF800000000
7FF800000000
7FF800000000
7FF000000000
7FF000000000
7FF000000000
7FF000000000
7FF000000000
7FF000000000
FFF000000000
FFF0000FFFC0
FFF003FFFFC0
FFE003FFFFC0
FFE003FFFFC0
FFE003FFFFC0
FFE003FFFFC0
FFE003FFFFC0
FFF003FFFFC0
FFF003FFFFC0
7FF003FFFFC0
7FF00001FFC0
7FF00001FFC0
7FF00001FFC0
7FF00001FFC0
7FF00001FFC0
7FF00001FFC0
7FF80001FFC0
7FF80001FFC0
3FFC0001FFC0
3FFC0001FFC0
3FFE0001FFC0
3FFF800FFFC0
1FFFFFFFFFC0
1FFFFFFFFFC0
0FFFFFFFFFC0
0FFFFFFFFFC0
07FFFFFFFFC0
03FFFFFFFFC0
03FFFFFFFFC0
00FFFFFC7FC0
007FFFE07FC0
001FFF803FC0
ENDCHAR
STARTCHAR H
ENCODING 72
SWIDTH 703 0
DWIDTH 53 0
BBX 43 56 5 0
BITMAP
FFE00000FFE0
FFE00000FFE0
FFE00000FFE0
FFE00000FFE0
FFE00000FFE0
FFE00000FFE0
FFE00000FFE0
FFE00000FFE0
FFE00000FFE0
FFE00000FFE0
FFE00000FFE0
FFE00000FFE0
FFE00000FFE0
FFE00000FFE0
FFE00000FFE0
FFE00000FFE0
FFE00000FFE0
FFE00000FFE0
FFE00000FFE0
FFE00000FFE0
FFE00000FFE0
FFE00000FFE0
FFE00000FFE0
FFE00000FFE0
FFFFFFFFFFE0
FFFFFFFFFFE0
FFFFFFFFFFE0
FFFFFFFFFFE0
FFFFFFFFFFE0
FFFFFFFFFFE0
FFFFFFFFFFE0
FFFFFFFFFFE0
FFFFFFFFFFE0
FFFFFFFFFFE0
FFE00000FFE0
FFE00000FFE0
FFE00000FFE0
FFE00000FFE0
FFE00000FFE0
FFE00000FFE0
FFE00000FFE0
FFE00000FFE0
FFE00000FFE0
FFE00000FFE0
FFE00000FFE0
FFE00000FFE0
FFE00000FFE0
FFE00000FFE0
FFE00000FFE0
FFE00000FFE0
FFE00000FFE0
FFE00000FFE0
FFE00000FFE0
FFE00000FFE0
FFE00000FFE0
FFE00000FFE0
ENDCHAR
STARTCHAR I
ENCODING 73
SWIDTH 276 0
DWIDTH 21 0
BBX 11 56 5 0
BITMAP
FFE0
FFE0
FFE0
FFE0
FFE0
FFE0
FFE0
FFE0
FFE0
FFE0
FFE0
FFE0
FFE0
FFE0
FFE0
FFE0
FFE0
FFE0
FFE0
FFE0
FFE0
FFE0
FFE0
FFE0
FFE0
FFE0
FFE0
FFE0
FFE0
FFE0
FFE0
FFE0
FFE0
FFE0
FFE0
FFE0
FFE0
FFE0
FFE0
FFE0
FFE0
FFE0
FFE0
FFE0
FFE0
FFE0
FFE0
FFE0
FFE0
FFE0
FFE0
FFE0
FFE0
FFE0
FFE0
FFE0
ENDCHAR
STARTCHAR J
ENCODING 74
SWIDTH 404 0
DWIDTH 30 0
BBX 24 56 2 0
BITMAP
000FFF
000FFF
000FFF
000FFF
000FFF
000FFF
000FFF
000FFF
000FFF
000FFF
000FFF
000FFF
000FFF
000FFF
000FFF
000FFF
000FFF
000FFF
000FFF
000FFF
000FFF
000FFF
000FFF
000FFF
000FFF
000FFF
000FFF
000FFF
000FFF
000FFF
000FFF
000FFF
000FFF
000FFF
000FFF
000FFF
000FFF
000FFF
000FFF
000FFF
000FFF
000FFF
000FFF
000FFE
001FFE
003FFE
FFFFFE
FFFFFE
FFFFFE
FFFFFC
FFFFFC
FFFFF8
FFFFF8
FFFFF0
FFFFC0
3FFF00
ENDCHAR
STARTCHAR K
ENCODING 75
SWIDTH 645 0
DWIDTH 48 0
BBX 42 56 5 0
BITMAP
FFE00003FFC0
FFE00007FF80
FFE00007FF00
FFE0000FFF00
FFE0000FFE00
FFE0001FFE00
FFE0001FFC00
FFE0003FFC00
FFE0003FF800
FFE0007FF800
FFE0007FF000
FFE000FFF000
FFE000FFE000
FFE001FFE000
FFE001FFC000
FFE003FFC000
FFE003FF8000
FFE007FF8000
FFE007FF0000
FFE00FFF0000
FFE00FFE0000
FFE01FFE0000
FFE01FFC0000
FFFFFFFC0000
FFFFFFF80000
FFFFFFF80000
FFFFFFF00000
FFFFFFF00000
FFFFFFE00000
FFFFFFF00000
FFFFFFF00000
FFFFFFF80000
FFFFFFF80000
FFFFFFFC0000
FFE01FFC0000
FFE01FFE0000
FFE00FFE0000
FFE00FFF0000
FFE007FF8000
FFE007FF8000
FFE003FFC000
FFE003FFC000
FFE001FFE000
FFE000FFE000
FFE000FFF000
FFE0007FF000
FFE0007FF800
FFE0003FF800
FFE0003FFC00
FFE0001FFC00
FFE0001FFE00
FFE0000FFF00
FFE0000FFF00
FFE00007FF80
FFE00007FF80
FFE00003FFC0
ENDCHAR
STARTCHAR L
ENCODING 76
SWIDTH 535 0
DWIDTH 40 0
BBX 33 56 5 0
BITMAP
FFE0000000
FFE0000000
FFE0000000
FFE0000000
FFE0000000
FFE0000000
FFE0000000
FFE0000000
FFE0000000
FFE0000000
FFE0000000
FFE0000000
FFE0000000
FFE0000000
FFE0000000
FFE0000000
FFE0000000
FFE0000000
FFE0000000
FFE0000000
FFE0000000
FFE0000000
FFE0000000
FFE0000000
FFE0000000
FFE0000000
FFE0000000
FFE0000000
FFE0000000
FFE0000000
FFE0000000
FFE0000000
FFE0000000
FFE0000000
FFE0000000
FFE0000000
FFE0000000
FFE0000000
FFE0000000
FFE0000000
FFE0000000
FFE0000000
FFE0000000
FFE0000000
FFF0000000
FFF8000000
FFFFFFFF80
FFFFFFFF80
FFFFFFFF80
7FFFFFFF80
7FFFFFFF80
3FFFFFFF80
1FFFFFFF80
0FFFFFFF80
07FFFFFF80
00FFFFFF80
ENDCHAR
STARTCHAR M
ENCODING 77
SWIDTH 883 0
DWIDTH 66 0
BBX 60 56 3 0
BITMAP
01FF8000001FF800
01FFC000001FFC00
01FFC000003FFC00
03FFC000003FFC00
03FFE000003FFC00
03FFE000007FFC00
03FFE000007FFC00
03FFF000007FFC00
03FFF00000FFFC00
03FFF00000FFFC00
03FFF00000FFFE00
07FFF80000FFFE00
07FFF80001FFFE00
07FFF80001FFFE00
07FFFC0001FFFE00
07FFFC0003FFFE00
07FFFC0003FFFE00
07FFFE0003FFFE00
07FFFE0007FFFF00
07FFFE0007FFFF00
0FFFFE0007FFFF00
0FFFFF0007F7FF00
0FFEFF000FF7FF00
0FFEFF000FF7FF00
0FFEFF800FF3FF00
0FFE7F801FE3FF00
0FFC7F801FE3FF00
0FFC7FC01FE3FF80
1FFC7FC03FE3FF80
1FFC3FC03FC3FF80
1FFC3FC03FC3FF80
1FFC3FE03FC3FF80
1FFC3FE07FC3FF80
1FFC1FE07F81FF80
1FF81FF07F81FF80
1FF81FF0FF81FFC0
1FF80FF0FF01FFC0
3FF80FF8FF01FFC0
3FF80FF9FF01FFC0
3FF80FF9FF01FFC0
3FF807F9FE01FFC0
3FF807FDFE01FFC0
3FF807FFFE00FFC0
3FF007FFFE00FFC0
3FF003FFFC00FFE0
3FF003FFFC00FFE0
7FF003FFFC00FFE0
7FF001FFFC00FFE0
7FF001FFF800FFE0
7FF001FFF800FFE0
7FF001FFF8007FE0
7FF000FFF0007FE0
7FE000FFF0007FF0
7FE000FFF0007FF0
FFE000FFF0007FF0
FFE0007FE0007FF0
ENDCHAR
STARTCHAR N
ENCODING 78
SWIDTH 704 0
DWIDTH 53 0
BBX 43 56 5 0
BITMAP
FF800000FFE0
FFC00000FFE0
FFC00000FFE0
FFE00000FFE0
FFF00000FFE0
FFF00000FFE0
FFF80000FFE0
FFFC0000FFE0
FFFC0000FFE0
FFFE0000FFE0
FFFE0000FFE0
FFFF0000FFE0
FFFF8000FFE0
FFFF8000FFE0
FFFFC000FFE0
FFFFE000FFE0
FFFFE000FFE0
FFFFF000FFE0
FFFFF800FFE0
FFFFF800FFE0
FFEFFC00FFE0
FFE7FC00FFE0
FFE7FE00FFE0
FFE3FF00FFE0
FFE1FF00FFE0
FFE1FF80FFE0
FFE0FFC0FFE0
FFE0FFC0FFE0
FFE07FE0FFE0
FFE03FF0FFE0
FFE03FF0FFE0
FFE01FF8FFE0
FFE00FF8FFE0
FFE00FFCFFE0
FFE007FEFFE0
FFE003FEFFE0
FFE003FFFFE0
FFE001FFFFE0
FFE001FFFFE0
FFE000FFFFE0
FFE0007FFFE0
FFE0007FFFE0
FFE0003FFFE0
FFE0001FFFE0
FFE0001FFFE0
FFE0000FFFE0
FFE00007FFE0
FFE00007FFE0
FFE00003FFE0
FFE00003FFE0
FFE00001FFE0
FFE00000FFE0
FFE00000FFE0
FFE000007FE0
FFE000003FE0
FFE000003FE0
ENDCHAR
STARTCHAR O
ENCODING 79
SWIDTH 699 0
DWIDTH 52 0
BBX 46 56 3 0
BITMAP
0000FFFC0000
000FFFFFE000
003FFFFFF800
00FFFFFFFC00
01FFFFFFFF00
03FFFFFFFF80
07FFFFFFFF80
0FFFFFFFFFC0
0FFFFFFFFFE0
1FFFFFFFFFE0
1FFFC00FFFF0
1FFF0001FFF0
3FFE0000FFF0
3FFC00007FF8
3FF800007FF8
7FF800003FF8
7FF800003FF8
7FF000003FF8
7FF000003FF8
7FF000003FFC
7FF000001FFC
7FF000001FFC
7FF000001FFC
FFF000001FFC
FFF000001FFC
FFF000001FFC
FFE000001FFC
FFE000001FFC
FFE000001FFC
FFE000001FFC
FFE000001FFC
FFF000001FFC
FFF000001FFC
FFF000001FFC
7FF000001FFC
7FF000001FFC
7FF000003FFC
7FF000003FFC
7FF000003FF8
7FF000003FF8
7FF800003FF8
7FF800007FF8
3FFC00007FF8
3FFC0000FFF0
3FFE0001FFF0
1FFF8007FFF0
1FFFFFFFFFE0
1FFFFFFFFFE0
0FFFFFFFFFC0
07FFFFFFFFC0
07FFFFFFFF80
03FFFFFFFF00
01FFFFFFFE00
007FFFFFFC00
001FFFFFF000
0003FFFF8000
ENDCHAR
STARTCHAR P
ENCODING 80
SWIDTH 621 0
DWIDTH 47 0
BBX 39 56 5 0
BITMAP
FFFFFF0000
FFFFFFFC00
FFFFFFFF00
FFFFFFFFC0
FFFFFFFFE0
FFFFFFFFF0
FFFFFFFFF0
FFFFFFFFF8
FFFFFFFFF8
FFFFFFFFFC
FFE003FFFC
FFE0007FFC
FFE0003FFE
FFE0001FFE
FFE0001FFE
FFE0000FFE
FFE0000FFE
FFE0000FFE
FFE0000FFE
FFE0000FFE
FFE0000FFE
FFE0000FFE
FFE0000FFE
FFE0000FFE
FFE0001FFE
FFE0001FFE
FFE0001FFE
FFE0003FFC
FFE0007FFC
FFFFFFFFFC
FFFFFFFFF8
FFFFFFFFF8
FFFFFFFFF0
FFFFFFFFF0
FFFFFFFFE0
FFFFFFFFC0
FFFFFFFF80
FFFFFFFE00
FFE0FFF000
FFE0000000
FFE0000000
FFE0000000
FFE0000000
FFE0000000
FFE0000000
FFE0000000
FFE0000000
FFE0000000
FFE0000000
FFE0000000
FFE0000000
FFE0000000
FFE0000000
FFE0000000
FFE0000000
FFE0000000
ENDCHAR
STARTCHAR Q
ENCODING 81
SWIDTH 699 0
DWIDTH 52 0
BBX 46 71 3 -15
BITMAP
0000FFFC0000
000FFFFFE000
003FFFFFF800
00FFFFFFFC00
01FFFFFFFF00
03FFFFFFFF80
07FFFFFFFF80
0FFFFFFFFFC0
0FFFFFFFFFE0
1FFFFFFFFFE0
1FFFC00FFFF0
1FFF0001FFF0
3FFE0000FFF0
3FFC00007FF8
3FF800007FF8
7FF800003FF8
7FF800003FF8
7FF000003FF8
7FF000003FF8
7FF000003FFC
7FF000001FFC
7FF000001FFC
7FF000001FFC
FFF000001FFC
FFF000001FFC
FFF000001FFC
FFE000001FFC
FFE000001FFC
FFE000001FFC
FFE000001FFC
FFE000001FFC
FFF000001FFC
FFF000001FFC
FFF000001FFC
7FF000001FFC
7FF000001FFC
7FF000003FFC
7FF000003FFC
7FF000003FF8
7FF000003FF8
7FF800003FF8
7FF800007FF8
3FFC00007FF8
3FFC0000FFF0
3FFE0001FFF0
1FFF8007FFF0
1FFFFFFFFFE0
1FFFFFFFFFE0
0FFFFFFFFFC0
07FFFFFFFFC0
07FFFFFFFF80
03FFFFFFFF00
01FFFFFFFE00
007FFFFFFC00
001FFFFFF000
0003FFFF8000
000000000000
000000000000
000000000000
000007F80000
000007F80000
000007FC0000
000007FF8300
000003FFFF00
000003FFFF00
000001FFFF00
000000FFFF00
0000007FFF00
0000001FFF00
00000007FF00
00000000FC00
ENDCHAR
STARTCHAR R
ENCODING 82
SWIDTH 627 0
DWIDTH 47 0
BBX 40 56 5 0
BITMAP
FFFFFE0000
FFFFFFFC00
FFFFFFFF00
FFFFFFFF80
FFFFFFFFC0
FFFFFFFFE0
FFFFFFFFF0
FFFFFFFFF8
FFFFFFFFF8
FFFFFFFFF8
FFE007FFFC
FFE0007FFC
FFE0003FFC
FFE0001FFC
FFE0001FFC
FFE0001FFC
FFE0001FFE
FFE0001FFE
FFE0001FFE
FFE0001FFE
FFE0001FFE
FFE0001FFC
FFE0001FFC
FFE0001FFC
FFE0003FFC
FFE0007FFC
FFE007FFF8
FFFFFFFFF8
FFFFFFFFF0
FFFFFFFFF0
FFFFFFFFE0
FFFFFFFFC0
FFFFFFFF00
FFFFFFFC00
FFFFFFFC00
FFE00FFE00
FFE00FFE00
FFE007FF00
FFE007FF00
FFE003FF00
FFE003FF80
FFE001FF80
FFE001FFC0
FFE001FFC0
FFE000FFE0
FFE000FFE0
FFE0007FF0
FFE0007FF0
FFE0003FF8
FFE0003FF8
FFE0003FFC
FFE0001FFC
FFE0001FFE
FFE0000FFE
FFE0000FFE
FFE00007FF
ENDCHAR
STARTCHAR S
ENCODING 83
SWIDTH 589 0
DWIDTH 44 0
BBX 38 56 3 0
BITMAP
0007FFC000
007FFFFF80
01FFFFFFE0
07FFFFFFE0
0FFFFFFFE0
1FFFFFFFE0
1FFFFFFFE0
3FFFFFFFE0
3FFFFFFFE0
7FFFFFFFE0
7FFE0000E0
7FF8000000
7FF0000000
7FE0000000
FFE0000000
FFE0000000
FFE0000000
FFE0000000
FFE0000000
FFE0000000
7FF0000000
7FF0000000
7FFC000000
7FFFFFE000
7FFFFFFC00
7FFFFFFF00
3FFFFFFF80
3FFFFFFFC0
1FFFFFFFE0
0FFFFFFFF0
07FFFFFFF0
01FFFFFFF8
007FFFFFF8
0007FFFFF8
0000007FFC
0000003FFC
0000001FFC
0000001FFC
0000001FFC
0000001FFC
0000001FFC
0000001FFC
0000001FFC
0000001FFC
0000003FFC
000000FFF8
7FFFFFFFF8
7FFFFFFFF8
7FFFFFFFF0
7FFFFFFFF0
7FFFFFFFE0
7FFFFFFFE0
7FFFFFFFC0
7FFFFFFF00
7FFFFFFE00
03FFFFF000
ENDCHAR
STARTCHAR T
ENCODING 84
SWIDTH 587 0
DWIDTH 44 0
BBX 42 56 1 0
BITMAP
FFFFFFFFFFC0
FFFFFFFFFFC0
FFFFFFFFFFC0
FFFFFFFFFFC0
FFFFFFFFFFC0
FFFFFFFFFFC0
FFFFFFFFFFC0
FFFFFFFFFFC0
FFFFFFFFFFC0
FFFFFFFFFFC0
0001FFE00000
0001FFE00000
0001FFE00000
0001FFE00000
0001FFE00000
0001FFE00000
0001FFE00000
0001FFE00000
0001FFE00000
0001FFE00000
0001FFE00000
0001FFE00000
0001FFE00000
0001FFE00000
0001FFE00000
0001FFE00000
0001FFE00000
0001FFE00000
0001FFE00000
0001FFE00000
0001FFE00000
0001FFE00000
0001FFE00000
0001FFE00000
0001FFE00000
0001FFE00000
0001FFE00000
0001FFE00000
0001FFE00000
0001FFE00000
0001FFE00000
0001FFE00000
0001FFE00000
0001FFE00000
0001FFE00000
0001FFE00000
0001FFE00000
0001FFE00000
0001FFE00000
0001FFE00000
0001FFE00000
0001FFE00000
0001FFE00000
0001FFE00000
0001FFE00000
0001FFE00000
ENDCHAR
STARTCHAR U
ENCODING 85
SWIDTH 686 0
DWIDTH 51 0
BBX 43 56 4 0
BITMAP
FFE00000FFE0
FFE00000FFE0
FFE00000FFE0
FFE00000FFE0
FFE00000FFE0
FFE00000FFE0
FFE00000FFE0
FFE00000FFE0
FFE00000FFE0
FFE00000FFE0
FFE00000FFE0
FFE00000FFE0
FFE00000FFE0
FFE00000FFE0
FFE00000FFE0
FFE00000FFE0
FFE00000FFE0
FFE00000FFE0
FFE00000FFE0
FFE00000FFE0
FFE00000FFE0
FFE00000FFE0
FFE00000FFE0
FFE00000FFE0
FFE00000FFE0
FFE00000FFE0
FFE00000FFE0
FFE00000FFE0
FFE00000FFE0
FFE00000FFE0
FFE00000FFE0
FFE00000FFE0
FFE00000FFE0
FFE00000FFE0
FFE00000FFE0
FFE00000FFE0
FFE00000FFE0
FFE00000FFE0
FFE00000FFE0
FFE00000FFE0
FFE00000FFE0
FFF00000FFE0
FFF00001FFE0
FFF80001FFE0
7FFC0007FFE0
7FFF000FFFC0
7FFFFFFFFFC0
3FFFFFFFFFC0
3FFFFFFFFF80
1FFFFFFFFF80
0FFFFFFFFF00
07FFFFFFFE00
03FFFFFFFC00
01FFFFFFF000
007FFFFFC000
0007FFFE0000
ENDCHAR
STARTCHAR V
ENCODING 86
SWIDTH 685 0
DWIDTH 51 0
BBX 49 56 1 0
BITMAP
FFF0000003FF80
7FF0000007FF80
7FF0000007FF00
7FF8000007FF00
3FF8000007FF00
3FF800000FFF00
3FFC00000FFE00
3FFC00000FFE00
1FFC00001FFE00
1FFC00001FFC00
1FFE00001FFC00
0FFE00003FFC00
0FFE00003FF800
0FFF00003FF800
07FF00003FF800
07FF00007FF000
07FF80007FF000
03FF80007FF000
03FF8000FFE000
03FF8000FFE000
01FFC000FFE000
01FFC001FFE000
01FFC001FFC000
01FFE001FFC000
00FFE001FFC000
00FFE003FF8000
00FFF003FF8000
007FF003FF8000
007FF007FF0000
007FF007FF0000
003FF807FF0000
003FF80FFE0000
003FF80FFE0000
001FFC0FFE0000
001FFC0FFC0000
001FFC1FFC0000
000FFC1FFC0000
000FFE1FFC0000
000FFE3FF80000
000FFE3FF80000
0007FF3FF80000
0007FF7FF00000
0007FF7FF00000
0003FFFFF00000
0003FFFFE00000
0003FFFFE00000
0001FFFFE00000
0001FFFFC00000
0001FFFFC00000
0000FFFFC00000
0000FFFF800000
0000FFFF800000
00007FFF800000
00007FFF800000
00007FFF000000
00003FFF000000
ENDCHAR
STARTCHAR W
ENCODING 87
SWIDTH 991 0
DWIDTH 74 0
BBX 72 56 1 0
BITMAP
FFF00001FF800007FF
7FF00001FFC0000FFF
7FF00001FFC0000FFF
7FF00003FFC0000FFE
7FF80003FFC0000FFE
7FF80003FFE0001FFE
3FF80007FFE0001FFE
3FF80007FFE0001FFC
3FFC0007FFE0001FFC
3FFC0007FFF0001FFC
1FFC000FFFF0003FFC
1FFC000FFFF0003FF8
1FFC000FFFF0003FF8
1FFE000FFFF8003FF8
0FFE001FFFF8007FF8
0FFE001FFFF8007FF0
0FFE001FFFFC007FF0
0FFF001FFFFC007FF0
07FF003FF7FC00FFF0
07FF003FE7FC00FFF0
07FF003FE7FE00FFE0
07FF807FE3FE00FFE0
03FF807FE3FE00FFE0
03FF807FC3FE01FFE0
03FF807FC3FF01FFC0
03FF80FFC1FF01FFC0
03FFC0FF81FF01FFC0
01FFC0FF81FF03FFC0
01FFC0FF80FF83FF80
01FFC1FF80FF83FF80
01FFE1FF00FF83FF80
00FFE1FF00FFC7FF80
00FFE1FF007FC7FF00
00FFE3FE007FC7FF00
00FFE3FE007FC7FF00
007FF3FE003FE7FF00
007FF3FE003FEFFE00
007FF7FC003FEFFE00
007FF7FC003FEFFE00
003FFFFC001FFFFE00
003FFFF8001FFFFE00
003FFFF8001FFFFC00
003FFFF8000FFFFC00
001FFFF8000FFFFC00
001FFFF0000FFFFC00
001FFFF0000FFFF800
001FFFF00007FFF800
000FFFE00007FFF800
000FFFE00007FFF800
000FFFE00003FFF000
000FFFC00003FFF000
000FFFC00003FFF000
0007FFC00003FFF000
0007FFC00001FFE000
0007FF800001FFE000
0007FF800001FFE000
ENDCHAR
STARTCHAR X
ENCODING 88
SWIDTH 663 0
DWIDTH 50 0
BBX 47 56 1 0
BITMAP
FFF800001FFE
7FF800001FFE
3FFC00003FFC
3FFC00003FFC
1FFE00007FF8
1FFF0000FFF0
0FFF0000FFF0
07FF8001FFE0
07FFC001FFE0
03FFC003FFC0
01FFE003FF80
01FFE007FF80
00FFF00FFF00
00FFF80FFF00
007FF81FFE00
003FFC1FFC00
003FFE3FFC00
001FFE3FF800
000FFF7FF000
000FFFFFF000
0007FFFFE000
0007FFFFE000
0003FFFFC000
0001FFFF8000
0001FFFF8000
0000FFFF0000
0000FFFF0000
00007FFE0000
00007FFC0000
00007FFE0000
0000FFFE0000
0000FFFF0000
0001FFFF8000
0003FFFF8000
0003FFFFC000
0007FFFFC000
000FFFFFE000
000FFFFFF000
001FFEFFF000
001FFC7FF800
003FFC7FFC00
007FF83FFC00
007FF83FFE00
00FFF01FFE00
00FFE00FFF00
01FFE00FFF80
03FFC007FF80
03FFC003FFC0
07FF8003FFE0
0FFF8001FFE0
0FFF0001FFF0
1FFE0000FFF0
1FFE00007FF8
3FFC00007FFC
7FFC00003FFC
FFF800001FFE
ENDCHAR
STARTCHAR Y
ENCODING 89
SWIDTH 628 0
DWIDTH 47 0
BBX 45 56 1 0
BITMAP
FFF000003FF8
7FF000007FF0
7FF800007FF0
3FF80000FFE0
3FF80000FFE0
3FFC0000FFE0
1FFC0001FFC0
1FFE0001FFC0
0FFE0003FF80
0FFE0003FF80
07FF0003FF00
07FF0007FF00
07FF8007FF00
03FF800FFE00
03FF800FFE00
01FFC00FFC00
01FFC01FFC00
00FFE01FF800
00FFE03FF800
00FFE03FF800
007FF03FF000
007FF07FF000
003FF87FE000
003FF87FE000
001FF8FFC000
001FFCFFC000
000FFDFFC000
000FFFFF8000
000FFFFF8000
0007FFFF0000
0007FFFF0000
0003FFFE0000
0003FFFE0000
0001FFFE0000
0001FFFC0000
0001FFFC0000
0000FFF80000
0000FFF80000
00007FF00000
00007FF00000
00007FF00000
00007FF00000
00007FF00000
00007FF00000
00007FF00000
00007FF00000
00007FF00000
00007FF00000
00007FF00000
00007FF00000
00007FF00000
00007FF00000
00007FF00000
00007FF00000
00007FF00000
00007FF00000
ENDCHAR
STARTCHAR Z
ENCODING 90
SWIDTH 574 0
DWIDTH 43 0
BBX 37 56 3 0
BITMAP
FFFFFFFFF8
FFFFFFFFF8
FFFFFFFFF8
FFFFFFFFF8
FFFFFFFFF8
FFFFFFFFF8
FFFFFFFFF8
FFFFFFFFF8
FFFFFFFFF8
FFFFFFFFF8
000000FFF8
000001FFF0
000003FFE0
000003FFE0
000007FFC0
00000FFF80
00000FFF80
00001FFF00
00001FFE00
00003FFE00
00007FFC00
00007FF800
0000FFF800
0001FFF000
0001FFE000
0003FFE000
0007FFC000
0007FFC000
000FFF8000
001FFF0000
001FFF0000
003FFE0000
007FFC0000
007FFC0000
00FFF80000
01FFF00000
01FFF00000
03FFE00000
07FFC00000
07FFC00000
0FFF800000
1FFF000000
1FFF000000
3FFE000000
3FFC000000
7FFC000000
FFFFFFFFF8
FFFFFFFFF8
FFFFFFFFF8
FFFFFFFFF8
FFFFFFFFF8
FFFFFFFFF8
FFFFFFFFF8
FFFFFFFFF8
FFFFFFFFF8
FFFFFFFFF8
ENDCHAR
STARTCHAR degree
ENCODING 176
SWIDTH 318 0
DWIDTH 24 0
BBX 22 22 1 36
BITMAP
007C00
03FF00
0FFFC0
1FFFE0
3FFFF0
3FCFF0
7E01F8
7C00F8
FC00F8
F800FC
F8007C
F8007C
F800FC
FC00F8
7C00F8
7E01F8
7F87F0
3FFFF0
1FFFE0
0FFFC0
07FF80
00FC00
ENDCHAR
ENDFONT
